<svg width="32" height="32" viewBox="0 0 32 32" fill="none" xmlns="http://www.w3.org/2000/svg">
<mask id="mask0_12782_149948" style="mask-type:alpha" maskUnits="userSpaceOnUse" x="4" y="4" width="24" height="24">
<rect x="4" y="4" width="24" height="24" fill="#D9D9D9"/>
</mask>
<g mask="url(#mask0_12782_149948)">
<path d="M7 25C6.45 25 5.97917 24.8042 5.5875 24.4125C5.19583 24.0208 5 23.55 5 23V9C5 8.45 5.19583 7.97917 5.5875 7.5875C5.97917 7.19583 6.45 7 7 7H25C25.55 7 26.0208 7.19583 26.4125 7.5875C26.8042 7.97917 27 8.45 27 9V23C27 23.55 26.8042 24.0208 26.4125 24.4125C26.0208 24.8042 25.55 25 25 25H7ZM7 23H25V11H7V23ZM20.675 17L18.775 15.1C18.575 14.9 18.4792 14.6667 18.4875 14.4C18.4958 14.1333 18.6 13.9 18.8 13.7C19 13.5167 19.2333 13.4208 19.5 13.4125C19.7667 13.4042 20 13.5 20.2 13.7L22.8 16.3C23 16.5 23.1 16.7333 23.1 17C23.1 17.2667 23 17.5 22.8 17.7L20.2 20.3C20.0167 20.4833 19.7875 20.5792 19.5125 20.5875C19.2375 20.5958 19 20.5 18.8 20.3C18.6167 20.1167 18.525 19.8833 18.525 19.6C18.525 19.3167 18.6167 19.0833 18.8 18.9L20.675 17ZM10 18C9.71667 18 9.47917 17.9042 9.2875 17.7125C9.09583 17.5208 9 17.2833 9 17C9 16.7167 9.09583 16.4792 9.2875 16.2875C9.47917 16.0958 9.71667 16 10 16H12C12.2833 16 12.5208 16.0958 12.7125 16.2875C12.9042 16.4792 13 16.7167 13 17C13 17.2833 12.9042 17.5208 12.7125 17.7125C12.5208 17.9042 12.2833 18 12 18H10Z" fill="#335C6B"/>
<path d="M15 18C14.7167 18 14.4792 17.9042 14.2875 17.7125C14.0958 17.5208 14 17.2833 14 17C14 16.7167 14.0958 16.4792 14.2875 16.2875C14.4792 16.0958 14.7167 16 15 16H17C17.2833 16 17.5208 16.0958 17.7125 16.2875C17.9042 16.4792 18 16.7167 18 17C18 17.2833 17.9042 17.5208 17.7125 17.7125C17.5208 17.9042 17.2833 18 17 18H15Z" fill="#335C6B"/>
</g>
</svg>
